<svg xmlns="http://www.w3.org/2000/svg" viewBox="0 0 926 94" width="926" height="94"><path d="M889.9 75.6l-.2 4.2c0 .9-.3 1.8-.7 2.6-.3.5-.7.9-1.3 1.1-.8.3-1.6.4-2.4.5-.4.1-.9.1-1.3.1s-.8.1-1.3.1v1.7c.4 0 .9 0 1.3-.1s.9-.1 1.3-.1c.9-.1 1.9-.1 2.8-.1l3-.1 5.2.1 5.8.1 3.4.1 3.4.1h2.7l5.8-.1 5-.1h1.2c.3 0 .7-.1 1-.1l.3-6.9.9-6.5h-1.9c-.2 2.2-.7 4.4-1.3 6.5-.5 1.7-1.2 2.8-1.9 3.1-.7.4-1.5.6-2.3.7l-4.1.4-5.1.2-5.2.1c-1.1 0-2.3-.1-3.6-.1-1.3-.1-2.5-.3-3.7-.7V57l4.3-.2h5.6c2 0 4 .1 6 .3 1 .1 2 .4 2.9.8.4.3.7 1.2.8 2.6l.4 4.8h1.7v-2.6c-.1-1-.1-2.1-.1-3.3v-6.5l.1-3.2v-3.4h-1.7l-.2 2.1c-.1.7-.2 1.3-.2 2 0 .5-.1 1.1-.2 1.6-.1.4-.3.8-.6 1.1-1 .7-4 1-8.9 1-4.1 0-7.4-.1-10-.3V29.5c1.2-.4 2.4-.6 3.7-.6 1.2-.1 2.4-.1 3.6-.1s2.7 0 4.1.1a31.08 31.08 0 0 1 4.3.3 30.34 30.34 0 0 1 4.2.6c1.3.2 2.5.5 3.7.9.4.2.7.6.8 1.1.1.6.2 1.1.2 1.7v5.3h2a70.16 70.16 0 0 1 .3-6.4c.2-2 .5-4 .9-6-1.6-.1-3.2-.2-4.9-.2h-8.6c-1.3 0-2.7 0-4.2.1-1.8.1-3.7.1-5.7.1h-10.7c-1.6 0-3.1-.1-4.7-.1h-1.9c-.8 0-1.5-.1-2.1-.1V28c.6.1 1.2.1 1.8.1s1.2.1 1.8.1c.8 0 1.6.2 2.4.5.5.2 1 .6 1.3 1.1.4.8.7 1.7.7 2.6.1 1.1.2 2.6.2 4.2v39h.1zm-46.8 0c0 1.7-.1 3.1-.2 4.2 0 .9-.3 1.8-.7 2.6-.6 1-1.8 1.5-3.7 1.5-.6.1-1.2.1-1.8.1-.5 0-1.1.1-1.7.1v1.7c2-.1 4-.2 5.9-.2s3.8-.1 5.8-.1 3.7 0 5.5.1 3.8.1 5.9.2v-1.7c-.6-.1-1.1-.1-1.7-.1s-1.2-.1-1.8-.1c-1.9-.1-3.1-.6-3.7-1.5-.4-.8-.6-1.7-.7-2.6-.1-1.2-.2-2.6-.2-4.2V38.5c0-1.8 0-3.4.1-4.9s.1-2.9.2-4.2h13.1c1-.1 2 .1 2.8.7.6.7.9 1.6.9 2.5l.3 6.5h1.7l.1-6.6.4-6.6c-1.3 0-2.7 0-4.2.1s-2.8.1-4.2.1-3 .1-4.4.1h-20.5c-1.5 0-2.9 0-4.4-.1s-2.8-.1-4.2-.1-2.7-.1-4.2-.1c.2 2.2.3 4.4.4 6.6s.1 4.4.1 6.6h1.7c.1-1.1.1-2.2.2-3.2s.1-2.1.2-3.3c0-.9.3-1.8.9-2.5.8-.6 1.8-.8 2.8-.7h13a37.08 37.08 0 0 1 .3 4.7c.1 1.5.1 3 .1 4.5l-.1 37h0zm-81.8-8.2c-.1 3.3.4 6.7 1.5 9.8.8 2.4 2.3 4.6 4.3 6.2s4.3 2.7 6.8 3.2a46.04 46.04 0 0 0 9.1.9c3.5.1 7-.4 10.4-1.5 2.7-.9 5.2-2.5 7.1-4.6 2-2.3 3.3-5.1 4-8 1-3.9 1.4-7.8 1.3-11.8V36.3c0-1.7.1-3.1.2-4.2 0-.9.3-1.8.7-2.6.5-.9 1.8-1.4 3.8-1.5l3.2-.2V26c-.6 0-1.1 0-1.7.1h-1.6c-1 .1-2 .1-3.1.1h-6c-1 0-2-.1-3.1-.1h-1.5c-.6 0-1.1-.1-1.5-.1v1.8c.5.1 1.1.1 1.6.1.6 0 1.1 0 1.7.1 1.9.2 3.2.7 3.7 1.6.4.8.6 1.7.6 2.6.1 1.1.2 2.6.2 4.2v28c.1 3.1-.4 6.2-1.4 9.2-1.4 4.3-4.9 7.5-9.3 8.6-2.1.5-4.3.8-6.5.8-2.5 0-5-.3-7.4-.8-4.2-.8-7.5-3.8-8.9-7.8-.8-2.6-1.2-5.3-1.1-8V36.3c0-1.7.1-3.1.2-4.2 0-.9.3-1.8.7-2.6.4-.5.8-.9 1.4-1.1.8-.3 1.6-.5 2.4-.5.6-.1 1.2-.1 1.8-.1.5 0 1.1-.1 1.8-.1V26c-4.1.2-8 .3-11.4.3h-5.8c-1.8 0-3.8-.1-5.9-.2v1.7c.6.1 1.1.1 1.7.1s1.1.1 1.7.1c.9 0 1.7.2 2.5.5.5.2 1 .6 1.3 1.1.4.8.6 1.7.7 2.6.1 1.2.2 2.6.2 4.2l-.4 31h0zm-42.8 8.2c0 1.4 0 2.8-.2 4.2 0 .9-.3 1.8-.7 2.6-.6 1-1.8 1.5-3.7 1.5-.6.1-1.2.1-1.8.1-.5 0-1.1.1-1.7.1v1.7c2-.1 4-.2 5.9-.2s3.8-.1 5.8-.1 3.7 0 5.5.1 3.8.1 5.9.2v-1.7c-.6-.1-1.1-.1-1.7-.1s-1.2-.1-1.8-.1c-1.9-.1-3.1-.6-3.7-1.5-.4-.8-.6-1.7-.6-2.6-.1-1.2-.2-2.6-.2-4.2V38.5c0-1.8 0-3.4.1-4.9s.1-2.9.2-4.2h13.1c1-.1 2 .1 2.8.7.6.7.9 1.6.9 2.5l.3 6.5h1.7l.1-6.6.4-6.6c-1.3 0-2.7 0-4.2.1s-2.8.1-4.2.1-3 .1-4.4.1h-20.7c-1.5 0-2.9 0-4.4-.1s-2.8-.1-4.2-.1-2.7-.1-4.2-.1c.2 2.2.4 4.4.4 6.6l.1 6.6h1.7c.1-1.1.1-2.2.2-3.2s.1-2.1.2-3.3c0-.9.3-1.8.9-2.5.8-.6 1.8-.8 2.8-.7h13a37.08 37.08 0 0 1 .3 4.7c.1 1.5.1 3 .1 4.5v37h0zm-40.4-39.3c0-1.4 0-2.8.2-4.2.1-.9.3-1.8.7-2.6.3-.5.8-.9 1.3-1.1.8-.3 1.6-.5 2.4-.5.6-.1 1.2-.1 1.8-.1.5 0 1.1-.1 1.7-.1V26c-4.2.2-8 .3-11.5.3h-5.8c-1.8 0-3.8-.1-5.9-.2v1.7c.6.1 1.1.1 1.7.1s1.2.1 1.8.1c.8 0 1.6.2 2.4.5.5.2 1 .6 1.3 1.1.4.8.6 1.7.6 2.6.1 1.2.2 2.6.2 4.2v39.3c0 1.7-.1 3.1-.2 4.2 0 .9-.2 1.8-.6 2.6-.6 1-1.8 1.5-3.7 1.6-.6.1-1.2.1-1.8.1-.5 0-1.1.1-1.7.1V86c2-.1 4-.2 5.9-.2h11.3c1.8 0 3.8.1 5.9.2v-1.7c-.6-.1-1.1-.1-1.7-.1-.5 0-1.2-.1-1.8-.1-1.9-.1-3.1-.6-3.7-1.6-.4-.8-.6-1.7-.7-2.6-.2-1.4-.2-2.8-.2-4.2l.1-39.4h0zm-56.4 39.3c0 1.7-.1 3.1-.2 4.2 0 .9-.2 1.8-.6 2.6-.6 1-1.8 1.5-3.7 1.5-.6.1-1.2.1-1.8.1-.5 0-1.1.1-1.7.1v1.7c2-.1 4-.2 5.9-.2s3.8-.1 5.8-.1 3.7 0 5.5.1 3.8.1 5.9.2v-1.7c-.6-.1-1.1-.1-1.7-.1s-1.2-.1-1.8-.1c-1.9-.1-3.1-.6-3.7-1.5-.4-.8-.6-1.7-.7-2.6-.2-1.4-.2-2.8-.2-4.2V38.5c0-1.8 0-3.4.1-4.9s.1-2.9.2-4.2h13.1c1-.1 2 .1 2.8.7.6.7.9 1.6.9 2.5l.3 6.5h1.7l.1-6.6.4-6.6c-1.3 0-2.7 0-4.2.1s-2.8.1-4.2.1-3 .1-4.4.1h-20.7c-1.4 0-2.9 0-4.4-.1s-2.8-.1-4.2-.1-2.7-.1-4.2-.1c.2 2.2.3 4.4.4 6.6s.1 4.4.1 6.6h1.7c0-1.1.1-2.2.2-3.2s.1-2.1.2-3.3c0-.9.3-1.8.9-2.5.8-.6 1.8-.8 2.8-.7h13a37.08 37.08 0 0 1 .3 4.7c.1 1.5.1 3 .1 4.5v37h0zm-34.4-36.1c0-2 .1-3.8.2-5.7.1-2 .4-4 .8-6-.1 0-.1 0-.2-.1h-.2c-1.7-.7-3.7-1.4-6-2.1-2.6-.8-5.2-1.2-7.9-1.1-2.5 0-4.9.4-7.3 1.2s-4.6 2-6.6 3.5c-2 1.6-3.7 3.7-4.8 6-1.3 2.7-1.9 5.6-1.9 8.6-.1 2 .3 4 1 5.8.7 1.6 1.7 3.1 3.1 4.2 1.6 1.3 3.4 2.2 5.4 2.8 2.6.8 5.4 1.4 8.1 1.7a56 56 0 0 1 5.9 1.2c1.7.4 3.3 1.1 4.7 2.1 1.3.9 2.3 2.1 3.1 3.5a10.77 10.77 0 0 1 1.1 5.3c0 2.1-.4 4.1-1.3 6-.8 1.7-2 3.2-3.4 4.4s-3 2.1-4.8 2.7-3.6.9-5.5.9a20.74 20.74 0 0 1-5-.6c-1.5-.4-2.9-.9-4.3-1.6a13.86 13.86 0 0 1-3.1-2.3c-.8-.7-1.3-1.7-1.4-2.8l-.6-5.5h-1.8v2.8c0 1.7 0 3.3-.1 5s-.2 3.3-.4 5c1.8.9 3.7 1.6 5.6 2 2.6.7 5.2 1 7.9 1 3 0 6-.5 8.9-1.3 2.8-.8 5.5-2.2 7.8-4s4.2-4.1 5.5-6.8c1.5-3 2.2-6.3 2.1-9.6.1-2.1-.4-4.2-1.3-6.1-.9-1.6-2.1-3-3.7-4-1.8-1.1-3.8-2-5.8-2.5-2.5-.7-5.1-1.1-7.7-1.4-2.2-.2-4.5-.7-6.6-1.4-1.6-.5-3-1.3-4.2-2.4-1.1-.9-1.9-2-2.3-3.3-.5-1.3-.7-2.8-.7-4.2 0-2 .4-4 1.1-5.9.7-1.6 1.6-3 2.9-4.1a12.83 12.83 0 0 1 4-2.5c1.4-.5 2.9-.8 4.4-.8 1.6 0 3.3.2 4.9.5 1.5.3 3 .9 4.3 1.7.7.4 1.3.9 1.9 1.4.4.3.7.8 1 1.2.2.4.4.8.5 1.3s.2 1.1.2 1.6l.5 4.6 2 .1h0zm-102 36c0 1.7-.1 3.1-.2 4.2 0 .9-.2 1.8-.6 2.6-.3.5-.8.9-1.4 1.1-.8.3-1.6.4-2.4.5l-3.2.2V86c.5 0 1 0 1.5-.1h1.5c1-.1 2.1-.1 3.1-.1h6c1 0 2 .1 3 .1h1.6c.6 0 1.2.1 1.8.1v-1.9c-.5-.1-1.1-.1-1.6-.1s-1.1 0-1.6-.1c-.8-.1-1.7-.2-2.5-.5-.6-.2-1-.6-1.3-1.1-.4-.8-.6-1.7-.7-2.6-.1-1.2-.2-2.6-.2-4.2l.2-41.6L527.5 86l3.3.6c1 .2 2.1.4 3.3.7v-.4c-.1-.4-.1-.7-.1-1.1V36.4c0-1.7.1-3.1.2-4.2 0-.9.3-1.8.7-2.6.6-.9 1.9-1.4 3.8-1.6l3.2-.2v-1.9c-.6 0-1.1 0-1.7.1h-1.6c-1 .1-2 .1-3 .1h-5.9c-1 0-2.1-.1-3.1-.1h-1.5c-.6 0-1.1-.1-1.6-.1v1.9c.6.1 1.1.1 1.7.1.5 0 1.1 0 1.6.1 2 .2 3.2.7 3.8 1.6.4.8.6 1.7.7 2.6.1 1.2.2 2.6.2 4.2l-.2 42.1L491.6 26c-.2 0-.5 0-.7.1h-.7c-.5.1-1 .1-1.5.1h-4.3c-1 0-2-.1-3.1-.1h-1.7c-.7 0-1.3-.1-1.9-.1v1.9c.5.1 1.1.1 1.6.1s1.1 0 1.6.1c1.9.2 3.2.7 3.8 1.6.4.8.6 1.7.6 2.6.1 1.1.2 2.6.2 4.2l-.2 39h0zm-32.4-55.3c0-2.2.1-4.1.2-5.6 0-1.2.3-2.4.9-3.4.4-.6 1-1.1 1.7-1.4 1-.4 2.1-.6 3.2-.6.9-.1 1.7-.1 2.4-.2.8 0 1.5-.1 2.3-.2V6.5c-5.5.2-10.6.3-15.2.3-2.7 0-5.3 0-7.6-.1s-5-.1-7.9-.3v2.3c.8.1 1.5.1 2.3.2.8 0 1.6.1 2.4.2 1.1 0 2.2.2 3.2.6.7.2 1.3.7 1.7 1.4.5 1.1.8 2.2.9 3.4.1 1.5.2 3.4.2 5.6v52.2c0 2.2-.1 4.1-.2 5.6 0 1.2-.3 2.4-.9 3.4-.8 1.3-2.4 2-4.9 2.1-.9.1-1.7.1-2.4.2-.8 0-1.5.1-2.3.2v2.3c2.7-.2 5.3-.2 7.9-.3s5.1-.1 7.6-.1l7.3.1c2.4.1 5 .1 7.9.3v-2.3c-.8-.1-1.5-.1-2.3-.2-.8 0-1.6-.1-2.4-.2-2.5-.1-4.1-.8-4.9-2.1-.5-1.1-.8-2.2-.9-3.4-.1-1.5-.2-3.4-.2-5.6V20.2h0z" fill="#54575a"/><path d="M414.1 39.5l.2-5.7a31.09 31.09 0 0 1 .9-6c-.1 0-.1 0-.2-.1h-.2l-6.1-2.1c-5-1.5-10.3-1.5-15.2.1-2.4.8-4.6 2-6.6 3.5-2 1.6-3.7 3.7-4.8 6-1.3 2.7-1.9 5.6-1.9 8.6-.1 1.9.3 3.9 1 5.7.7 1.6 1.8 3.1 3.1 4.2 1.6 1.3 3.4 2.3 5.4 2.9 2.6.8 5.4 1.4 8.1 1.7 2 .3 3.9.7 5.8 1.2 1.7.4 3.3 1.1 4.7 2.1 1.3.9 2.3 2.1 3.1 3.5.8 1.7 1.1 3.5 1.1 5.3 0 2.1-.4 4.1-1.3 6-.8 1.7-2 3.2-3.4 4.4s-3 2.1-4.8 2.7-3.6.9-5.5.9a20.74 20.74 0 0 1-5-.6c-1.5-.4-2.9-.9-4.3-1.6a13.86 13.86 0 0 1-3.1-2.3c-.8-.7-1.3-1.7-1.4-2.8l-.6-5.5h-1.8v2.9c0 1.7 0 3.3-.1 5s-.2 3.3-.4 5c1.8.9 3.7 1.6 5.6 2 2.6.7 5.2 1 7.9 1 3 0 6-.4 8.9-1.3 2.8-.8 5.5-2.2 7.8-4s4.2-4.1 5.5-6.8c1.5-3 2.2-6.3 2.1-9.6.1-2.1-.4-4.2-1.3-6.1-.9-1.6-2.1-3-3.7-4-1.8-1.1-3.8-2-5.8-2.5-2.5-.7-5.1-1.1-7.7-1.4-2.2-.2-4.5-.7-6.6-1.4-1.6-.5-3-1.3-4.2-2.4-1.1-.8-1.9-2-2.3-3.3-.5-1.3-.7-2.8-.7-4.2 0-2 .4-4 1.1-5.9.7-1.5 1.7-2.9 2.9-4.1a12.83 12.83 0 0 1 4-2.5c1.4-.5 2.9-.8 4.4-.8 1.6 0 3.3.2 4.9.5 1.5.3 3 .9 4.3 1.7.7.4 1.3.9 1.9 1.4.4.3.8.7 1 1.2.2.4.4.8.5 1.3s.2 1.1.2 1.6l.5 4.6h2.1zM330 75.6c0 1.7-.1 3.1-.2 4.2-.1.9-.3 1.8-.7 2.6-.3.5-.7.9-1.3 1.1-.8.3-1.6.4-2.4.5-.4.1-.9.1-1.3.1s-.8.1-1.3.1v1.7h1.3c.4 0 .9-.1 1.3-.1.9-.1 1.9-.1 2.8-.1 1 0 2-.1 3-.1 1.6 0 3.4 0 5.2.1s3.8.1 5.8.1c.9 0 2 0 3.4.1h11.9c1.9 0 3.5-.1 5-.1h1.2c.3 0 .7-.1 1.1-.1 0-2.3.1-4.6.3-6.9.2-2.2.5-4.4.9-6.5h-1.9c-.2 2.2-.7 4.4-1.3 6.5-.5 1.7-1.2 2.8-1.9 3.1-.7.4-1.5.6-2.3.7-1.4.2-2.7.3-4.1.4-1.6.1-3.3.2-5.1.2s-3.6.1-5.2.1c-1.1 0-2.3-.1-3.6-.1-1.3-.1-2.5-.3-3.7-.7V57a51.91 51.91 0 0 1 4.3-.2h5.6c2 0 4 .1 6 .3 1 .1 2 .4 2.9.8.4.3.7 1.2.8 2.6l.4 4.8h1.7v-2.6c-.1-1-.1-2.1-.1-3.3v-6.5c0-1.1.1-2.1.1-3.2v-3.4h-1.7c-.1.8-.1 1.5-.2 2.1s-.1 1.3-.2 2-.1 1.2-.2 1.6-.3.8-.6 1.1c-1 .7-3.9 1-8.9 1-4 0-7.4-.1-10-.3V29.5c1.2-.4 2.4-.6 3.7-.6 1.2-.1 2.4-.1 3.6-.1h4.1a31.08 31.08 0 0 1 4.3.3 30.34 30.34 0 0 1 4.2.6c1.2.1 2.5.5 3.6 1 .4.2.7.6.8 1.1.1.6.2 1.1.2 1.7v5.3h2a70.16 70.16 0 0 1 .3-6.4c.2-2 .5-4 .9-6-1.6-.1-3.2-.2-4.9-.2h-8.5c-1.3 0-2.7 0-4.2.1-1.8.1-3.7.1-5.7.1h-10.7c-1.6 0-3.1-.1-4.7-.1h-1.9c-.8 0-1.5-.1-2.1-.1V28c.6.1 1.2.1 1.8.1s1.2.1 1.8.1c.8 0 1.6.2 2.4.5.5.2 1 .6 1.3 1.1.4.8.7 1.7.7 2.6.1 1.2.2 2.6.2 4.2v39h0zm-23.5-36.1c0-2 .1-3.9.2-5.7a31.09 31.09 0 0 1 .9-6c-.1 0-.1 0-.2-.1h-.2c-1.7-.7-3.7-1.4-6-2.1-2.6-.8-5.2-1.2-7.9-1.1-2.5 0-4.9.4-7.3 1.2s-4.6 2-6.6 3.5c-2 1.6-3.7 3.7-4.8 6-1.3 2.7-1.9 5.6-1.9 8.6-.1 1.9.3 3.9 1 5.7.7 1.6 1.7 3.1 3.1 4.2 1.6 1.3 3.4 2.3 5.4 2.9 2.6.8 5.4 1.4 8.1 1.7 2 .3 3.9.7 5.8 1.2 1.7.4 3.3 1.1 4.7 2.1 1.3.9 2.3 2.1 3.1 3.5.8 1.7 1.1 3.5 1.1 5.3 0 2.1-.4 4.1-1.3 6-.8 1.7-2 3.2-3.4 4.4s-3 2.1-4.8 2.7-3.6.9-5.5.9a20.74 20.74 0 0 1-5-.6c-1.5-.4-2.9-.9-4.3-1.6a13.86 13.86 0 0 1-3.1-2.3c-.8-.7-1.3-1.7-1.4-2.8l-.7-5.5h-1.8v2.9c0 1.7 0 3.3-.1 5s-.2 3.3-.4 5c1.8.9 3.7 1.5 5.6 2 2.6.7 5.2 1 7.9 1 3 0 6-.4 8.9-1.3 2.8-.8 5.5-2.2 7.8-4s4.2-4.1 5.5-6.8c1.5-3 2.2-6.3 2.1-9.6.1-2.1-.4-4.2-1.3-6.1-.9-1.6-2.1-3-3.7-4-1.8-1.1-3.8-2-5.8-2.5-2.5-.7-5.1-1.1-7.7-1.4-2.2-.2-4.5-.7-6.6-1.4-1.6-.5-3-1.3-4.2-2.4-1-.9-1.8-2-2.3-3.3s-.7-2.8-.7-4.2c0-2 .4-4 1.1-5.9.7-1.5 1.7-2.9 2.9-4.1a12.83 12.83 0 0 1 4-2.5c1.4-.5 2.9-.8 4.4-.8 1.6 0 3.3.2 4.9.5 1.5.3 3 .9 4.3 1.7.7.4 1.3.9 1.9 1.4.4.3.8.8 1.1 1.2.2.4.4.8.5 1.3s.2 1.1.2 1.6l.5 4.6h2zm-55.8-3.2c0-1.7.1-3.1.2-4.2 0-.9.3-1.8.7-2.6.3-.5.8-.9 1.3-1.1.8-.3 1.6-.5 2.4-.5.6-.1 1.2-.1 1.8-.1.5 0 1.1-.1 1.7-.1V26c-4.1.2-8 .3-11.5.3h-5.8c-1.8 0-3.8-.1-5.9-.2v1.7c.6.1 1.1.1 1.7.1s1.2.1 1.8.1c.8 0 1.6.2 2.4.5.5.2 1 .6 1.3 1.1.4.8.6 1.7.7 2.6.2 1.4.2 2.8.2 4.2v39.3c0 1.7-.1 3.1-.2 4.2 0 .9-.3 1.8-.7 2.6-.6 1-1.8 1.5-3.7 1.5-.6.1-1.2.1-1.8.1-.5 0-1.1.1-1.7.1v1.7c2.1-.1 4-.2 5.9-.2h11.3c1.8 0 3.8.1 5.9.2v-1.7c-.6-.1-1.1-.1-1.7-.1s-1.2-.1-1.8-.1c-1.9-.1-3.1-.6-3.7-1.5-.4-.8-.6-1.7-.7-2.6-.1-1.2-.2-2.6-.2-4.2V36.3h.1zm-38-16c0-2.2.1-4.1.2-5.6 0-1.2.3-2.4.9-3.4.7-1.1 2.4-1.8 5-2.1l4-.3V6.5c-.4 0-.8 0-1.2.1-.4 0-.8.1-1.2.1-1 .1-2.2.1-3.5.2s-2.6.1-3.6.1-2.3 0-3.4-.1-2.3-.1-3.5-.2c-.5 0-.9 0-1.4-.1-.6 0-1.1-.1-1.6-.1L189 39.3 174.6 72l-29-65.5c-.5 0-.9 0-1.4.1-.5 0-1 .1-1.4.1-1.1.1-2.2.1-3.5.2s-2.5.1-3.5.1c-1.2 0-2.4 0-3.6-.1s-2.3-.1-3.5-.2c-.4 0-.9 0-1.3-.1-.5 0-1-.1-1.5-.1V9c.7.1 1.5.1 2.2.1s1.4 0 2.1.1c2.6.2 4.3.9 5 2.1.5 1.1.8 2.2.9 3.4.1 1.5.2 3.4.2 5.6v52c0 2.2-.1 4.1-.2 5.6-.1 1.2-.4 2.3-.9 3.4-.4.7-1 1.2-1.8 1.4a9.6 9.6 0 0 1-3.3.6l-4.3.2v2.4c.7 0 1.4 0 2.1-.1.7 0 1.3-.1 2-.1 1.2-.1 2.6-.1 4.1-.2s2.8-.1 4-.1c1.4 0 2.7 0 4 .1s2.7.1 4 .2c.7 0 1.5 0 2.2.1.9 0 1.6.1 2.3.1v-2.4c-.7-.1-1.4-.1-2.1-.1s-1.4 0-2.1-.1c-1.1-.1-2.1-.3-3.2-.6-.7-.2-1.3-.7-1.7-1.4-.6-1.1-.9-2.2-1-3.4-.1-1.5-.2-3.4-.2-5.6l.2-52.9 1.1-.2 30.1 68h1.3c.4-.8.7-1.6 1-2.5.3-.8.6-1.6 1-2.5l1.8-4.8c.6-1.6 1.3-3.2 1.9-4.7L198 28.9c.6-1.4 1.4-3.1 2.3-4.9s2.1-3.9 3.6-6.4v54.7c0 2.2-.1 4.1-.2 5.6 0 1.2-.3 2.4-.9 3.4-.4.7-1 1.2-1.8 1.4-1 .3-2.1.5-3.2.6-.5.1-1 .1-1.5.1s-1.1 0-1.6.1v2.4c2-.2 4.2-.2 6.5-.3s4.8-.1 7.3-.1l7.3.1c2.4.1 5.1.1 7.9.3v-2.3c-.9-.1-1.6-.1-2.4-.2-.8 0-1.5-.1-2.3-.2-2.6-.1-4.2-.8-5-2-.5-1.1-.8-2.2-.9-3.4-.1-1.5-.2-3.4-.2-5.6l-.2-51.9h0z" fill="#226093"/><g fill="#005594"><path d="M34 75.9c2 1.5 3 3.8 4.3 7.1.4 1.2 1.1 2.3 2 3.2s2 1.6 3.2 2c-.5-.1-1-.2-1.4-.4a12.58 12.58 0 0 1-5.1-2.7c-.9-.9-1.6-2.1-2-3.4-.6-2.2-.3-4.3-1-5.8z"/><path d="M42.2 87.8c.5.1.9.2 1.4.4-1.3-.1-2.6-.1-3.9 0-1.3.2-2.6.6-3.9 1.1-3.6 1.2-7 1.4-10.1-.3 2.1.2 4.1-.9 6.5-1.6 1.4-.4 2.8-.6 4.2-.5 2 .1 3.9.4 5.8.9zM28.7 72.1c1.7 1.9 2.3 4.3 3.1 7.7.3 1.2.7 2.4 1.5 3.4s1.7 1.8 2.8 2.5l-1.3-.6c-1.8-.8-3.3-2-4.5-3.5-.8-1.1-1.3-2.3-1.5-3.6-.3-2.3.3-4.3-.1-5.9z"/><path d="M34.8 85.1l1.3.6c-1.2-.4-2.5-.6-3.8-.7a26.93 26.93 0 0 0-4 .3c-3.7.5-7 .1-9.8-2.1 2 .6 4.1-.1 6.6-.3 1.4-.1 2.8 0 4.2.2 1.9.5 3.8 1.1 5.5 2zM24.1 67.4c1.4 2.1 1.6 4.6 1.9 8 0 1.2.3 2.5.9 3.6s1.4 2.1 2.4 3c-.4-.3-.8-.5-1.2-.8-1.6-1.1-2.9-2.5-3.8-4.2a8.49 8.49 0 0 1-.9-3.8c0-2.3.8-4.1.7-5.8z"/><path d="M28 81.2c.4.3.8.6 1.2.8-1.1-.6-2.4-1-3.6-1.4-1.3-.3-2.6-.4-3.9-.4-3.7-.2-6.8-1.2-9.1-3.8 1.9 1 4 .6 6.4.9 1.4.1 2.7.5 4 1 1.8.7 3.4 1.7 5 2.9zM20.3 62c1 2.3.9 4.8.6 8.2-.1 1.2 0 2.5.3 3.6a10.62 10.62 0 0 0 1.8 3.3c-.4-.3-.7-.7-1-1-1.4-1.3-2.5-3-3.1-4.8-.4-1.2-.5-2.5-.2-3.8.4-2.3 1.5-3.9 1.6-5.5z"/><path d="M22 76.1l1 1c-1-.8-2.1-1.4-3.3-2-1.2-.5-2.5-.8-3.7-1.1-3.6-.8-6.4-2.4-8.2-5.3 1.6 1.3 3.7 1.3 6 2 1.3.4 2.6 1 3.7 1.7 1.6 1 3.1 2.3 4.5 3.7zM17.5 56c.6 2.5.1 4.8-.7 8.1-.3 1.2-.4 2.4-.3 3.6.2 1.2.7 2.4 1.3 3.5l-.9-1.2c-1.1-1.5-1.9-3.3-2.2-5.2-.2-1.3-.1-2.6.4-3.8.7-2.1 2-3.4 2.4-5z"/><path d="M16.9 70l.9 1.2c-.9-.9-1.8-1.8-2.8-2.5a22.11 22.11 0 0 0-3.4-1.8c-3.3-1.5-5.7-3.5-7-6.7 1.4 1.5 3.3 1.9 5.4 3 1.2.6 2.3 1.4 3.3 2.3 1.3 1.4 2.6 2.9 3.6 4.5zm-1.1-20.4c.2 2.5-.7 4.8-2 7.8-.5 1.1-.8 2.3-.9 3.5 0 1.2.3 2.5.7 3.6l-.6-1.3c-.8-1.7-1.3-3.6-1.3-5.5 0-1.3.4-2.5.9-3.6 1.1-1.9 2.6-3.1 3.2-4.5z"/><path d="M13 63.2l.6 1.3c-.7-1.1-1.5-2.1-2.3-3-.9-.9-1.9-1.7-3-2.3-2.9-2-4.9-4.4-5.6-7.8 1 1.7 2.9 2.5 4.7 3.9a15.44 15.44 0 0 1 2.8 2.9c1.1 1.5 2 3.2 2.8 5zm2.2-20.3c-.3 2.6-1.5 4.6-3.2 7.4-.7 1-1.1 2.1-1.4 3.2-.2 1.2-.2 2.5.1 3.7-.1-.5-.3-.9-.4-1.4-.5-1.8-.6-3.8-.3-5.6.2-1.2.7-2.4 1.5-3.4 1.3-1.7 2.9-2.6 3.7-3.9z"/><path d="M10.3 55.8c.1.5.3.9.4 1.4-.5-1.2-1-2.3-1.7-3.3s-1.6-2-2.5-2.8c-2.4-2.5-3.9-5.2-4-8.5.7 1.9 2.3 2.9 3.8 4.6.9 1 1.6 2.1 2.2 3.3.8 1.6 1.4 3.4 1.8 5.3zm5.5-19.7c-.7 2.5-2.2 4.3-4.3 6.7-.8.9-1.4 1.9-1.8 3-.4 1.2-.6 2.4-.5 3.6-.1-.4-.2-.9-.2-1.4-.2-1.9 0-3.8.6-5.6.4-1.2 1.1-2.2 2-3.1 1.5-1.4 3.2-2 4.2-3.2z"/><path d="M9 48c0 .5.1 1 .1 1.4-.2-1.2-.6-2.4-1.1-3.5s-1.1-2.2-1.8-3.2c-1.9-2.8-2.9-5.7-2.4-9 .4 1.9 1.7 3.2 2.8 5.2a11.95 11.95 0 0 1 1.5 3.5A26.18 26.18 0 0 1 9 48zm8.5-18.4c-1.1 2.3-2.9 3.9-5.2 5.9-.9.7-1.7 1.6-2.3 2.6-.6 1.1-.9 2.3-1.1 3.5 0-.5.1-.9.1-1.4.1-1.9.6-3.7 1.5-5.4.6-1.1 1.5-2 2.5-2.7 1.7-1.2 3.3-1.5 4.5-2.5z"/><path d="M9 40.1c-.1.5-.1 1-.1 1.4l-.4-3.7a19.57 19.57 0 0 0-1.2-3.4c-1.4-2.9-1.6-6.2-.7-9.2 0 2 1 3.4 1.8 5.5.4 1.2.7 2.5.8 3.8L9 40.1zm11.4-16.7c-1.5 2.1-3.4 3.4-6.1 5-1 .6-1.9 1.3-2.6 2.2-.7 1-1.3 2.1-1.7 3.2.1-.5.2-.9.4-1.4.5-1.8 1.3-3.5 2.4-5 .8-1 1.7-1.7 2.8-2.3 1.8-.9 3.5-.9 4.8-1.7z"/><path d="M10.4 32.4c-.1.5-.2.9-.4 1.4.2-1.2.3-2.5.2-3.7s-.2-2.4-.5-3.5c-.8-3.1-.5-6.3 1-9.1-.4 1.9.4 3.5.7 5.6.2 1.3.2 2.5.1 3.8-.2 1.8-.6 3.7-1.1 5.5zm13.9-14.7c-1.8 1.8-3.9 2.8-6.7 3.9-1.1.4-2 1-2.9 1.7-.9.8-1.6 1.8-2.2 2.9l.6-1.3c.8-1.7 1.9-3.2 3.2-4.5.9-.8 1.9-1.4 3.1-1.8 1.9-.5 3.5-.3 4.9-.9z"/><path d="M13.1 25l-.6 1.3a23.69 23.69 0 0 0 .9-3.6c.1-1.2.2-2.4.1-3.5-.2-3.1.7-6.2 2.7-8.7-.7 1.8-.3 3.4-.4 5.6a21.98 21.98 0 0 1-.6 3.7c-.6 1.8-1.3 3.5-2.1 5.2zm16.1-12.2c-2.1 1.5-4.3 2.1-7.2 2.8-1.1.2-2.1.7-3.1 1.2-1 .7-1.9 1.5-2.6 2.5l.8-1.2c1-1.5 2.4-2.9 4-3.9 1-.6 2.1-1.1 3.3-1.3 1.8-.2 3.3.3 4.8-.1zM17 18.2l-.8 1.2 1.6-3.3c.4-1.1.6-2.2.8-3.4.4-3.1 1.9-5.9 4.2-7.9-1 1.6-.9 3.2-1.4 5.3-.3 1.2-.7 2.4-1.3 3.5L17 18.2zm17.9-9.4c-2.4 1-4.9 1.6-7.5 1.6-1.1.1-2.2.3-3.2.8-1.1.5-2.1 1.2-3 2 .3-.3.6-.7 1-1 1.3-1.3 2.8-2.4 4.5-3.1 1.1-.5 2.2-.7 3.4-.8 1.9 0 3.2.6 4.8.5z"/><path d="M22.1 12.1l-1 1c.8-1 1.5-2 2.1-3s1-2.1 1.4-3.1c1-2.9 2.9-5.4 5.5-7-1.2 1.4-1.5 3-2.4 4.8C27.3 6 26.6 7 25.9 8c-1.2 1.5-2.4 2.8-3.8 4.1zm5.7-4.8c1.1-.8 3.3-1.1 6-2.5.8-.4 2.2-1.3 3.5-2.2.9-.6 1.9-1.1 2.9-1.6-.3.1-1.8.3-3.3.6-1.4.3-2.7.7-4 1.3-2.9 1.6-4.1 3.7-5.1 4.4zM74 76c-2 1.5-3 3.8-4.3 7.1-.4 1.2-1.1 2.3-2 3.2s-2 1.6-3.2 2l1.4-.3c1.9-.5 3.6-1.4 5-2.7.9-.9 1.6-2.1 2-3.3.7-2.4.4-4.5 1.1-6z"/><path d="M65.9 87.8l-1.4.4c1.3-.1 2.6-.1 3.9 0 1.3.2 2.6.6 3.9 1.1 3.6 1.2 7 1.4 10.1-.3-2.1.2-4.1-.9-6.5-1.6-1.4-.4-2.8-.6-4.2-.5-2 .1-3.9.4-5.8.9zm13.5-15.7c-1.7 1.9-2.3 4.3-3.2 7.7a8.47 8.47 0 0 1-1.4 3.4c-.8 1-1.7 1.8-2.8 2.5l1.3-.6c1.8-.8 3.3-2 4.5-3.5.8-1.1 1.2-2.3 1.4-3.6.4-2.3-.2-4.3.2-5.9z"/><path d="M73.3 85.1l-1.3.6c1.2-.4 2.5-.6 3.8-.7a26.93 26.93 0 0 1 4 .3c3.7.5 7 .1 9.8-2.1-2 .6-4.1-.1-6.6-.3-1.4-.1-2.8 0-4.2.2-1.9.5-3.8 1.1-5.5 2zM84 67.4c-1.4 2.1-1.6 4.6-1.9 8 0 1.2-.3 2.5-.9 3.6s-1.4 2.1-2.4 3c.4-.3.8-.5 1.2-.8 1.6-1.1 2.9-2.5 3.8-4.2a8.49 8.49 0 0 0 .9-3.8c0-2.3-.8-4.1-.7-5.8z"/><path d="M80.1 81.2c-.4.3-.8.6-1.2.8 1.1-.6 2.4-1 3.6-1.4 1.3-.3 2.6-.4 3.9-.4 3.7-.2 6.8-1.2 9.1-3.8-1.9 1-4 .6-6.4.9-1.4.1-2.7.5-4 1-1.8.7-3.4 1.7-5 2.9zM87.8 62c-1 2.3-.9 4.8-.6 8.2.1 1.2 0 2.5-.3 3.6-.4 1.2-1 2.3-1.9 3.2l1-1c1.4-1.3 2.5-3 3.1-4.8.4-1.2.5-2.5.2-3.8-.3-2.2-1.4-3.8-1.5-5.4z"/><path d="M86.1 76.1l-1 1c1-.8 2.1-1.4 3.3-2 1.2-.5 2.4-.8 3.7-1.1 3.6-.8 6.4-2.4 8.2-5.3-1.7 1.3-3.7 1.3-6 2-1.3.4-2.6 1-3.7 1.7-1.7 1-3.1 2.3-4.5 3.7zM90.6 56c-.6 2.5-.1 4.8.7 8.1.3 1.2.4 2.4.3 3.6-.2 1.2-.7 2.4-1.3 3.5l.8-1.2c1.1-1.5 1.9-3.3 2.2-5.2.2-1.3.1-2.6-.4-3.8-.6-2.1-1.9-3.4-2.3-5z"/><path d="M91.2 70l-.8 1.2c.9-.9 1.8-1.8 2.8-2.5a22.11 22.11 0 0 1 3.4-1.8c3.3-1.5 5.7-3.5 7-6.7-1.4 1.5-3.3 1.9-5.4 3-1.2.6-2.3 1.4-3.3 2.3-1.4 1.4-2.7 2.9-3.7 4.5zm1.1-20.4c-.2 2.5.7 4.8 2 7.8.5 1.1.8 2.3.8 3.5s-.3 2.5-.7 3.6l.6-1.3c.8-1.7 1.3-3.6 1.3-5.5 0-1.3-.4-2.5-.9-3.6-1-1.9-2.5-3.1-3.1-4.5z"/><path d="M95.1 63.2l-.6 1.3c.7-1.1 1.5-2.1 2.3-3 .9-.9 1.9-1.7 3-2.3 2.9-2 4.9-4.4 5.6-7.8-1 1.7-2.9 2.5-4.7 3.9a15.44 15.44 0 0 0-2.8 2.9c-1.1 1.5-2 3.2-2.8 5zm-2.2-20.3c.3 2.6 1.5 4.6 3.2 7.4.7 1 1.1 2.1 1.4 3.2.2 1.2.2 2.5-.1 3.7l.4-1.4c.5-1.8.6-3.7.3-5.6-.2-1.2-.7-2.4-1.5-3.4-1.3-1.7-2.9-2.6-3.7-3.9z"/><path d="M97.8 55.8l-.4 1.4c.5-1.2 1.1-2.3 1.7-3.3.7-1 1.5-2 2.4-2.8 2.4-2.5 3.9-5.2 4-8.5-.7 1.9-2.3 2.9-3.8 4.6-.9 1-1.6 2.1-2.2 3.3-.7 1.6-1.3 3.4-1.7 5.3zm-5.5-19.7c.7 2.5 2.2 4.3 4.3 6.7.8.9 1.4 1.9 1.8 3 .4 1.2.6 2.4.6 3.6 0-.5.1-1 .1-1.4.2-1.9 0-3.8-.6-5.6-.4-1.2-1.1-2.2-2-3.1-1.5-1.4-3.2-2-4.2-3.2z"/><path d="M99.1 48c0 .5-.1 1-.1 1.4.3-1.2.6-2.4 1.1-3.6.5-1.1 1.1-2.2 1.9-3.2 1.9-2.8 2.9-5.7 2.4-9-.4 1.9-1.7 3.2-2.8 5.2-.6 1.1-1.1 2.3-1.5 3.5-.6 1.9-.9 3.8-1 5.7zm-8.5-18.4c1.1 2.3 2.8 3.9 5.2 5.9.9.7 1.7 1.6 2.2 2.6.6 1.1.9 2.3 1.1 3.5 0-.5-.1-.9-.1-1.4-.1-1.9-.6-3.7-1.5-5.4-.6-1.1-1.4-2-2.4-2.7-1.7-1.2-3.3-1.5-4.5-2.5zm8.5 10.5c.1.5.1 1 .1 1.4 0-1.2.2-2.5.4-3.7a19.57 19.57 0 0 1 1.2-3.4c1.4-2.9 1.6-6.2.7-9.2 0 2-1 3.4-1.8 5.5-.4 1.2-.7 2.5-.8 3.8l.2 5.6zM87.7 23.4c1.5 2.1 3.4 3.4 6.1 5 1 .6 1.9 1.3 2.6 2.2.7 1 1.3 2.1 1.7 3.2l-.3-1.4c-.5-1.8-1.3-3.5-2.4-5-.8-1-1.7-1.7-2.8-2.3-1.9-.9-3.6-.9-4.9-1.7z"/><path d="M97.7 32.4l.3 1.4c-.2-1.2-.2-2.5-.2-3.7.1-1.2.2-2.4.5-3.5.8-3.1.5-6.3-1-9.1.3 1.9-.4 3.5-.7 5.6-.2 1.3-.2 2.5-.1 3.8l1.2 5.5zM83.8 17.7c1.8 1.8 3.9 2.8 6.7 3.9 1 .4 2 1 2.9 1.7.9.8 1.6 1.8 2.2 2.9l-.6-1.3c-.8-1.7-1.9-3.2-3.2-4.5-.9-.8-1.9-1.4-3.1-1.8-1.9-.5-3.5-.3-4.9-.9z"/><path d="M95 25l.6 1.3a23.69 23.69 0 0 1-.9-3.6l-.2-3.5c.2-3.1-.7-6.2-2.7-8.7.7 1.8.3 3.4.4 5.6a21.98 21.98 0 0 0 .6 3.7L95 25zM78.9 12.8c2.1 1.5 4.3 2.1 7.2 2.8 1.1.2 2.1.7 3.1 1.2 1 .7 1.9 1.5 2.6 2.5-.2-.4-.5-.8-.8-1.2-1-1.5-2.4-2.9-3.9-3.9-1-.6-2.1-1.1-3.3-1.3-1.9-.2-3.4.3-4.9-.1z"/><path d="M91.1 18.2c.3.4.5.8.8 1.2-.6-1.1-1.1-2.2-1.5-3.3s-.6-2.2-.8-3.4c-.4-3.1-1.9-5.9-4.2-7.9 1 1.6.9 3.2 1.4 5.3.3 1.2.7 2.4 1.3 3.5l3 4.6zM73.2 8.8c2.4 1 4.9 1.6 7.5 1.6 1.1.1 2.2.3 3.2.8 1.1.5 2.1 1.2 3 2l-1-1c-1.3-1.3-2.8-2.4-4.5-3.1-1.1-.5-2.2-.7-3.4-.7-1.9-.1-3.2.5-4.8.4z"/><path d="M86 12.1l1 1c-.8-1-1.5-2-2.1-3S83.9 8 83.5 7c-1-2.9-2.9-5.4-5.5-7 1.2 1.4 1.5 3 2.3 4.8C80.8 6 81.5 7 82.2 8c1.2 1.5 2.4 2.8 3.8 4.1zm-5.7-4.8c-1.1-.8-3.3-1.1-6-2.5-.8-.4-2.2-1.3-3.5-2.2-.9-.6-1.9-1.1-2.9-1.6.3.1 1.8.3 3.3.6 1.4.3 2.7.7 4 1.3 2.9 1.6 4.1 3.7 5.1 4.4zM53.9 84.8c1.3 3.6.5 2.8 4 4.1-3.6 1.3-2.7.5-4 4.1-1.3-3.6-.5-2.8-4.1-4.1 3.6-1.3 2.8-.4 4.1-4.1M48 88.7l.7-.3c-.3-.1-.5-.3-.8-.5-1-.8-1.9-1.8-2.6-2.9-1.9-3.1-3.2-5.2-5.5-6.4.9 1.4 1 3.6 2 5.7.6 1.2 1.5 2.2 2.6 3 1 .7 2 1.2 3.1 1.5l.5-.1z"/><path d="M48 89.5l-1.1-.4c-.9 0-1.9.1-2.8.2-1.4.2-2.8.7-4.1 1.3-2.3 1.1-4 2.6-6.2 2.8 3.4 1.1 6.7.3 10.1-1.6 1.2-.7 2.4-1.3 3.7-1.8.3-.1.7-.2 1.1-.3l-.7-.2zm20.1 1.1c-1.3-.6-2.7-1.1-4.1-1.3l-2.8-.2-1.1.4-.7.2 1.1.3c1.3.5 2.5 1.1 3.7 1.8 3.4 1.9 6.7 2.7 10.1 1.6-2.2-.2-3.9-1.7-6.2-2.8zM62.7 85c-.6 1.1-1.5 2.1-2.5 2.9l-.8.5.7.3.3.1c1.1-.3 2.2-.8 3.1-1.4 1.1-.8 2-1.8 2.6-3 1-2.2 1.1-4.3 2-5.7-2.1 1.1-3.4 3.2-5.4 6.3zm20-35.3v-30l-.7-.2c-9-1.7-18.2-2.6-27.4-2.5H54c-9.4-.1-18.8.8-28 2.5l-.7.2v30c0 4.3 1 8.6 3.1 12.5 3.1 6.2 10 14.7 25.3 19.9l.3.1.3-.1c28.9-10 28.4-31.3 28.4-32.4z"/></g><g fill="#fff"><path d="M45.3 64.9v-7.1H28.5l20.4-28.2h1.6v24.3h4.3v4h-4.3V65l-5.2-.1zm.1-23.6l-8.9 12.6h8.8v-9.1-1.6c0-.6.1-1.2.1-1.9h0z"/><path d="M79.9 47.9c0 5.6-1.1 10-3.3 13.2-2.1 3.1-5.6 4.9-9.3 4.8-3.7.1-7.2-1.7-9.3-4.8-2.2-3.2-3.3-7.7-3.3-13.5s1.1-10.3 3.3-13.5c2-3.1 5.6-5 9.3-4.8 3.7-.2 7.3 1.7 9.3 4.8 2.2 3.2 3.3 7.8 3.3 13.8zm-12.7 13c2.3 0 4.3-1.3 5.2-3.4 1.2-2.2 1.8-5.6 1.8-10.1 0-4.3-.6-7.7-1.7-9.9s-2.8-3.4-5.1-3.4-4.3 1.3-5.2 3.4c-1.2 2.3-1.8 5.6-1.8 10 0 4.3.6 7.6 1.8 9.9 1.2 2.4 2.8 3.5 5 3.5h0z"/></g></svg>
